<?xml version="1.0" encoding="UTF-8" standalone="no"?>
<svg
   viewBox="0 0 720 144"
   role="img"
   aria-label="Meridian"
   version="1.1"
   id="svg12"
   sodipodi:docname="meridian-banner.svg"
   inkscape:version="1.2.2 (b0a8486541, 2022-12-01)"
   xmlns:inkscape="http://www.inkscape.org/namespaces/inkscape"
   xmlns:sodipodi="http://sodipodi.sourceforge.net/DTD/sodipodi-0.dtd"
   xmlns="http://www.w3.org/2000/svg"
   xmlns:svg="http://www.w3.org/2000/svg">
  <defs
     id="defs16">
    <clipPath
       clipPathUnits="userSpaceOnUse"
       id="clipPath18">
      <path
         d="M 0,1000 H 1000 V 0 H 0 Z"
         id="path16"
         inkscape:connector-curvature="0" />
    </clipPath>
    <clipPath
       clipPathUnits="userSpaceOnUse"
       id="clipPath18-9">
      <path
         d="M 0,1000 H 1000 V 0 H 0 Z"
         id="path16-3"
         inkscape:connector-curvature="0" />
    </clipPath>
  </defs>
  <sodipodi:namedview
     id="namedview14"
     pagecolor="#ffffff"
     bordercolor="#000000"
     borderopacity="0.25"
     inkscape:showpageshadow="2"
     inkscape:pageopacity="0.0"
     inkscape:pagecheckerboard="0"
     inkscape:deskcolor="#d1d1d1"
     showgrid="false"
     inkscape:zoom="0.64327075"
     inkscape:cx="326.45663"
     inkscape:cy="124.36443"
     inkscape:window-width="1920"
     inkscape:window-height="1011"
     inkscape:window-x="0"
     inkscape:window-y="0"
     inkscape:window-maximized="1"
     inkscape:current-layer="svg12" />
  <rect
     width="720"
     height="144"
     fill="#162640"
     id="rect2"
     inkscape:label="Banner Background" />
  <g
     transform="matrix(3.25,0,0,3.25,54,20)"
     id="g8"
     inkscape:label="Meridian Innermark">
    <rect
       width="32"
       height="32"
       rx="6"
       fill="#ffffff"
       id="rect4"
       inkscape:label="Rounded Square Background"
       x="0"
       y="0" />
    <path
       d="M 8,22 V 10 h 3 l 5,8 5,-8 h 3 V 22 H 21.4 V 14.6 L 16,21 H 15.6 L 10.2,14.6 V 22 Z"
       fill="#162640"
       id="path6"
       inkscape:label="Monogram" />
  </g>
  <g
     transform="matrix(3.8056295,0,0,3.8056295,572.59384,4.059007)"
     id="g8-6"
     inkscape:label="CodeFlower Branding">
    <rect
       width="28.430199"
       height="5.1951308"
       rx="1.2192391"
       fill="#ffffff"
       id="rect4-2"
       inkscape:label="Rounded Square Background"
       x="9.2807102"
       y="30.495775"
       style="stroke-width:0.379785"
       ry="1.0630653" />
    <g
       id="g12"
       inkscape:label="CodeFlower Logo"
       transform="matrix(0.01040178,0,0,-0.01040178,8.6643769,39.109166)">
      <g
         id="g14"
         clip-path="url(#clipPath18-9)">
        <g
           id="g20"
           transform="translate(500.5162,496.5321)" />
        <g
           id="g22"
           transform="translate(433.6891,629.6893)">
          <path
             d="M 0,0 C 2.183,15.571 6.331,25.832 8.179,26.511 9.96,27.165 18.854,23.204 29.85,14.007 31.905,22.012 34.38,29.38 37.072,36.059 16.511,58.928 -3.497,68.77 -6.585,67.635 -9.718,66.484 -18.099,43.495 -18.644,11.736 -12.595,8.438 -6.33,4.551 0,0"
             style="fill:#000000;fill-opacity:1;fill-rule:nonzero;stroke:none"
             id="path24"
             inkscape:connector-curvature="0" />
        </g>
        <g
           id="g26"
           transform="translate(172.7037,580.9608)">
          <path
             d="M 0,0 C 0,15.586 212.246,156.131 212.246,156.131 195.51067,155.93412 -40.133,18.483 -40.133,-1.181 c 0,-19.664 227.54304,-157.311 252.379,-157.311 C 212.246,-158.492 0,-15.586 0,0"
             style="fill:#000000;fill-opacity:1;fill-rule:nonzero;stroke:none"
             id="path28"
             inkscape:connector-curvature="0"
             sodipodi:nodetypes="ccscc" />
        </g>
        <g
           id="g30"
           transform="translate(827.2965,583.9149)">
          <path
             d="m 0,0 c 0,15.586 -211.065,156.132 -211.065,156.132 28.61482,0 251.198,-137.649 251.198,-157.312 0,-19.664 -220.01992,-157.311 -251.198,-157.311 C -211.065,-158.491 0,-15.586 0,0"
             style="fill:#000000;fill-opacity:1;fill-rule:nonzero;stroke:none"
             id="path32"
             inkscape:connector-curvature="0"
             sodipodi:nodetypes="ccscc" />
        </g>
        <g
           id="g34"
           transform="translate(433.6891,629.6893)">
          <path
             d="M 0,0 C 2.183,15.571 6.331,25.832 8.179,26.511 9.96,27.165 18.854,23.204 29.85,14.007 31.905,22.012 34.38,29.38 37.072,36.059 16.511,58.928 -3.497,68.77 -6.585,67.635 -9.718,66.484 -18.099,43.495 -18.644,11.736 -12.595,8.438 -6.33,4.551 0,0"
             style="fill:#36940c;fill-opacity:1;fill-rule:nonzero;stroke:none"
             id="path36"
             inkscape:connector-curvature="0" />
        </g>
        <g
           id="g38"
           transform="translate(500.9908,496.1815)">
          <path
             d="m 0,0 c -4.252,0 -34.02,29.768 -34.02,80.797 0,55.282 29.768,89.302 34.02,89.302 4.253,0 34.02,-38.272 34.02,-89.302 C 34.021,34.02 4.253,0 0,0 m -0.321,213.791 c -5.366,0 -42.921,-42.92 -42.921,-112.666 0,-64.382 37.555,-101.937 42.921,-101.937 5.364,0 42.92,42.92 42.92,101.937 0,64.381 -37.556,112.666 -42.92,112.666"
             style="fill:#36940c;fill-opacity:1;fill-rule:nonzero;stroke:none"
             id="path40"
             inkscape:connector-curvature="0" />
        </g>
        <g
           id="g42"
           transform="translate(358.6871,551.9227)">
          <path
             d="M 0,0 C -7.653,11.843 -10.928,21.051 -10.071,22.682 -9.108,24.514 1.8,27.944 18.383,28.021 14.867,35.023 11.95,41.944 9.553,48.6 -23.463,52.93 -46.992,46.349 -48.598,43.294 -50.099,40.438 -41.549,19.144 -22.1,-3.892 -15.311,-2.241 -7.923,-0.884 0,0"
             style="fill:#36940c;fill-opacity:1;fill-rule:nonzero;stroke:none"
             id="path44"
             inkscape:connector-curvature="0" />
        </g>
        <g
           id="g46"
           transform="translate(500.1363,495.0722)">
          <path
             d="m 0,0 c -0.154,-0.134 -0.396,-0.25 -0.699,-0.349 0.024,-0.164 0.031,-0.308 0.014,-0.425 -0.591,-4.212 -38.423,-28.955 -84.745,-22.445 -50.533,7.103 -84.29,41.906 -83.698,46.117 0.516,3.67 29.319,22.932 72.949,22.729 -1.008,1.092 -2.009,2.2 -2.995,3.34 -2.389,2.759 -4.647,5.559 -6.792,8.386 -62.996,5.123 -105.679,-23.033 -106.385,-28.055 -0.747,-5.313 41.843,-49.223 105.597,-58.183 C -48.312,-37.099 -0.582,-5.882 0.165,-0.569 0.19,-0.384 0.173,-0.149 0.119,0.123 0.08,0.078 0.04,0.034 0,0"
             style="fill:#36940c;fill-opacity:1;fill-rule:nonzero;stroke:none"
             id="path48"
             inkscape:connector-curvature="0" />
        </g>
        <g
           id="g50"
           transform="translate(499.3609,495.4755)">
          <path
             d="m 0,0 c -3.215,-2.783 -47.987,3.449 -78.606,38.812 -33.405,38.578 -35.954,86.996 -32.739,89.78 2.798,2.423 37.083,-1.99 69.786,-30.737 -0.032,1.316 -0.053,2.637 -0.053,3.976 0,3.873 0.122,7.658 0.341,11.363 -44.055,45.125 -94.603,51.954 -98.431,48.639 -4.056,-3.512 -0.84,-64.599 41.304,-113.27 C -59.768,3.948 -3.28,-3.915 0.775,-0.403 0.867,-0.323 0.959,-0.21 1.05,-0.08 0.809,-0.038 0.519,0.063 0.189,0.215 0.127,0.13 0.063,0.055 0,0"
             style="fill:#36940c;fill-opacity:1;fill-rule:nonzero;stroke:none"
             id="path52"
             inkscape:connector-curvature="0" />
        </g>
        <g
           id="g54"
           transform="translate(567.1617,629.6893)">
          <path
             d="m 0,0 c -2.183,15.571 -6.331,25.832 -8.179,26.511 -1.782,0.654 -10.675,-3.307 -21.672,-12.504 -2.054,8.005 -4.53,15.373 -7.222,22.052 C -16.511,58.928 3.497,68.77 6.584,67.635 9.717,66.484 18.099,43.495 18.644,11.736 12.594,8.438 6.329,4.551 0,0"
             style="fill:#000000;fill-opacity:1;fill-rule:nonzero;stroke:none"
             id="path56"
             inkscape:connector-curvature="0" />
        </g>
        <g
           id="g58"
           transform="translate(567.1617,629.6893)">
          <path
             d="m 0,0 c -2.183,15.571 -6.331,25.832 -8.179,26.511 -1.782,0.654 -10.675,-3.307 -21.672,-12.504 -2.054,8.005 -4.53,15.373 -7.222,22.052 C -16.511,58.928 3.497,68.77 6.584,67.635 9.717,66.484 18.099,43.495 18.644,11.736 12.594,8.438 6.329,4.551 0,0"
             style="fill:#36940c;fill-opacity:1;fill-rule:nonzero;stroke:none"
             id="path60"
             inkscape:connector-curvature="0" />
        </g>
        <g
           id="g62"
           transform="translate(642.1627,551.9227)">
          <path
             d="m 0,0 c 7.654,11.843 10.929,21.051 10.072,22.682 -0.963,1.832 -11.871,5.262 -28.454,5.339 3.516,7.002 6.433,13.923 8.83,20.579 33.016,4.33 56.545,-2.251 58.151,-5.306 C 50.1,40.438 41.55,19.144 22.101,-3.892 15.312,-2.241 7.924,-0.884 0,0"
             style="fill:#36940c;fill-opacity:1;fill-rule:nonzero;stroke:none"
             id="path64"
             inkscape:connector-curvature="0" />
        </g>
        <g
           id="g66"
           transform="translate(500.7135,495.0722)">
          <path
             d="M 0,0 C 0.155,-0.134 0.396,-0.25 0.7,-0.349 0.676,-0.513 0.669,-0.657 0.686,-0.774 c 0.591,-4.212 38.423,-28.955 84.745,-22.445 50.533,7.103 84.29,41.906 83.698,46.117 -0.516,3.67 -29.319,22.932 -72.949,22.729 1.008,1.092 2.009,2.2 2.995,3.34 2.389,2.759 4.646,5.559 6.791,8.386 62.997,5.123 105.68,-23.033 106.386,-28.055 0.746,-5.313 -41.843,-49.223 -105.598,-58.183 C 48.313,-37.099 0.583,-5.882 -0.164,-0.569 -0.19,-0.384 -0.172,-0.149 -0.118,0.123 -0.079,0.078 -0.039,0.034 0,0"
             style="fill:#36940c;fill-opacity:1;fill-rule:nonzero;stroke:none"
             id="path68"
             inkscape:connector-curvature="0" />
        </g>
        <g
           id="g70"
           transform="translate(501.4898,495.4755)">
          <path
             d="m 0,0 c 3.215,-2.783 47.987,3.449 78.606,38.812 33.405,38.578 35.954,86.996 32.739,89.78 -2.799,2.423 -37.083,-1.99 -69.786,-30.737 0.032,1.316 0.053,2.637 0.053,3.976 0,3.873 -0.122,7.658 -0.341,11.363 44.055,45.125 94.602,51.954 98.431,48.639 4.056,-3.512 0.84,-64.599 -41.304,-113.27 C 59.767,3.948 3.28,-3.915 -0.776,-0.403 c -0.092,0.08 -0.183,0.193 -0.275,0.323 0.242,0.042 0.532,0.143 0.862,0.295 C -0.127,0.13 -0.063,0.055 0,0"
             style="fill:#36940c;fill-opacity:1;fill-rule:nonzero;stroke:none"
             id="path72"
             inkscape:connector-curvature="0" />
        </g>
      </g>
    </g>
    <text
       style="font-variant:normal;font-weight:normal;font-stretch:normal;font-size:3.24636px;font-family:CamingoCode;-inkscape-font-specification:CamingoCode-Regular;writing-mode:lr-tb;fill:#000000;fill-opacity:1;fill-rule:nonzero;stroke:none;stroke-width:0.0320813"
       id="text76"
       y="34.238232"
       inkscape:label="CodeFlower Text"
       x="18.528204"><tspan
         x="18.528204 20.3137 22.09919 23.884684 25.670174 27.455664 29.241158 31.026648 32.812141 34.59763"
         sodipodi:role="line"
         id="tspan74"
         style="stroke-width:0.0320813">CodeFlower</tspan></text>
  </g>
  <text
     x="219.66391"
     y="96"
     font-family="system-ui, '-apple-system', 'Segoe UI', Roboto, sans-serif"
     font-size="64px"
     font-weight="600"
     fill="#ffffff"
     id="text10"
     inkscape:label="Meridian Wordmark">MERIDIAN</text>
  <text
     xml:space="preserve"
     style="font-size:13.3333px;font-variation-settings:normal;text-align:center;text-anchor:middle;opacity:1;vector-effect:none;fill:#162640;fill-opacity:1;stroke-width:3.25;stroke-linecap:butt;stroke-linejoin:miter;stroke-miterlimit:4;stroke-dasharray:none;stroke-dashoffset:0;stroke-opacity:1;-inkscape-stroke:none;stop-color:#000000;stop-opacity:1"
     x="561.29602"
     y="133.46666"
     id="text1458"
     inkscape:label="Subtitle"><tspan
       sodipodi:role="line"
       id="tspan1456"
       x="561.29602"
       y="133.46666"
       style="font-style:normal;font-variant:normal;font-weight:normal;font-stretch:normal;font-size:13.3333px;font-family:system-ui, '-apple-system', 'Segoe UI', Roboto, sans-serif;-inkscape-font-specification:'system-ui, -apple-system, Segoe UI, Roboto, sans-serif';fill:#ffffff;fill-opacity:1">A project by:</tspan></text>
</svg>
